<svg xmlns="http://www.w3.org/2000/svg" viewBox="0 0 64 64">
    <path fill="#35444f"
        d="M-1.6 42.48V0H8.88l11.76 17.28a254.4 254.4 0 0 1 6.04 9.52c-.2-3.8-.32-7.9-.32-11V0h10.28v42.48H26.1L13 23.33a101.4 101.4 0 0 1-4.64-7.65c.2 3.47.32 7 .32 9.44v17.36H-1.6zm42.54 0L56.82 0h8.6l17.55 42.48H72.05l-2.9-7.14H53.73l-2.5 7.14h-10.3zm18.32-22.5-2.32 6.37h8.56l-2.58-6.5a81.45 81.45 0 0 1-1.92-5.5c-.72 2.37-1.36 4.56-1.74 5.64zM82.84 9.26V0h36.12v9.26H106.3v33.22H95.5V9.26H82.84zm40.8 16.64V0h10.8v25.9c0 4.1 1.29 8.36 8.17 8.36s8.48-4.24 8.48-8.94V0h10.41v25.32c0 10.93-5.4 18.06-18.83 18.06-13.04 0-19.02-6.75-19.02-17.48zm46.09 16.58V0h16.32c11.76 0 15.94 5.08 15.94 11.89 0 6.36-3.6 9.96-7.52 11.82 1.67.9 2.89 2.58 3.99 5.6.9 2.56 1.35 5.01 5.97 4.82l-1.86 8.73c-10.16 1.28-12.53-5.27-14.27-9.96-1.8-4.88-2.5-5.4-6.1-5.4h-1.68v14.98h-10.8zm16.06-33.42h-5.26v9.38h5.26c3.92 0 5.4-2.44 5.4-4.94 0-3.16-1.8-4.44-5.4-4.44zm19.67 33.42L221.34 0h8.6l17.55 42.48h-10.93l-2.89-7.14h-15.42l-2.5 7.14h-10.3zm18.32-22.5-2.32 6.37h8.56l-2.58-6.5a80.64 80.64 0 0 1-1.93-5.51c-.71 2.37-1.35 4.56-1.73 5.64zm27.18 22.5V0h10.8v33.22h16.64v9.26h-27.44z" />
    <path fill="#f76c5e"
        d="M12.98 53.83a291.82 291.82 0 0 0-1.19 3.2 82.57 82.57 0 0 0-.65 1.78.6.6 0 0 1-.56.39.6.6 0 0 1-.56-.4l-2.9-7.88-2.9 7.9a.63.63 0 0 1-.22.28.54.54 0 0 1-.66 0 .6.6 0 0 1-.23-.28 86.78 86.78 0 0 0-.66-1.78 2012.37 2012.37 0 0 1-2.69-7.36 3.38 3.38 0 0 1-.14-.47c0-.16.05-.3.17-.41a.58.58 0 0 1 .75-.06c.1.07.17.16.22.27l2.9 7.89 2.9-7.9a.58.58 0 0 1 .22-.26.58.58 0 0 1 .88.27l2.9 7.89 2.91-7.9a.58.58 0 0 1 .22-.26.58.58 0 0 1 .75.06c.11.11.18.24.18.4a47.29 47.29 0 0 1-.52 1.55 630.27 630.27 0 0 1-1.12 3.08zm13.68 5.37a.6.6 0 0 1-.59-.58V49.3c0-.16.06-.3.17-.4s.26-.18.42-.18c.16 0 .3.06.42.17s.18.25.18.4v9.33c0 .16-.06.3-.18.4s-.25.18-.42.18zm17.6 0h-3.54c-.16 0-.3-.06-.42-.18s-.16-.25-.16-.4V49.3a.58.58 0 0 1 .58-.58.56.56 0 0 1 .6.58v8.73h2.95c.16 0 .3.07.43.18s.17.25.17.4a.6.6 0 0 1-.6.6zm16.16 0h-3.26c-.1 0-.2-.03-.3-.1s-.16-.13-.21-.24a.56.56 0 0 1-.03-.48V49.3c0-.16.05-.3.17-.4s.26-.18.43-.18h3.2c.7 0 1.33.16 1.9.45a4.9 4.9 0 0 1 2.43 2.84 5.62 5.62 0 0 1-.08 4.05c-.26.64-.62 1.2-1.05 1.67s-.95.83-1.5 1.08-1.13.39-1.69.39zm0-9.31h-2.64v8.13h2.64c.5 0 .96-.12 1.38-.36s.78-.56 1.1-.95.55-.83.72-1.33a4.53 4.53 0 0 0 0-2.96c-.16-.48-.4-.92-.7-1.3s-.67-.67-1.1-.9-.9-.33-1.41-.33zm19.9 9.31c-.4 0-.8-.08-1.14-.24a3.06 3.06 0 0 1-1.57-1.56 2.82 2.82 0 0 1-.23-1.14c0-.16.05-.32.17-.42s.27-.18.43-.18.3.06.41.18.18.26.18.42c0 .24.04.47.13.68a1.8 1.8 0 0 0 1.61 1.08 1.73 1.73 0 0 0 1.26-.52 1.8 1.8 0 0 0 .52-1.24 1.37 1.37 0 0 0-.66-1.22 1.98 1.98 0 0 0-.33-.2l-.39-.17a20.32 20.32 0 0 0-.85-.32c-.28-.1-.58-.23-.88-.37s-.56-.3-.8-.48-.42-.45-.57-.76-.23-.65-.23-1.1c0-.4.08-.78.24-1.13a3.06 3.06 0 0 1 1.56-1.57 2.9 2.9 0 0 1 3.23.64 3 3 0 0 1 .86 2.08c0 .15-.06.3-.17.4a.6.6 0 0 1-.84 0 .54.54 0 0 1-.17-.41 1.82 1.82 0 0 0-.52-1.24 1.8 1.8 0 0 0-1.26-.52 1.71 1.71 0 0 0-1.23.51 1.76 1.76 0 0 0-.51 1.25c0 .27.05.49.16.67s.26.32.47.46c.2.13.46.24.72.36l.42.16.44.16c.3.1.59.24.88.36s.56.32.8.52.44.48.58.78.23.7.23 1.14a2.96 2.96 0 0 1-2.95 2.94zm16.14 0a.6.6 0 0 1-.6-.58V49.3c0-.16.05-.3.17-.4a.6.6 0 0 1 .84 0c.12.1.17.24.17.4v9.32a.58.58 0 0 1-.58.58zm17.32 0h-3.27c-.11 0-.2-.03-.32-.1s-.15-.13-.2-.24a.56.56 0 0 1-.03-.48V49.3c0-.16.06-.3.18-.4s.25-.18.42-.18h3.2a4.26 4.26 0 0 1 3.4 1.63c.4.48.71 1.04.94 1.66a5.62 5.62 0 0 1-.08 4.05c-.27.64-.62 1.2-1.06 1.67s-.94.83-1.5 1.08-1.12.39-1.68.39zm-.01-9.31h-2.63v8.13h2.64c.5 0 .96-.12 1.38-.36s.78-.56 1.1-.95.55-.83.72-1.33a4.53 4.53 0 0 0 .01-2.96c-.17-.48-.4-.92-.71-1.3s-.67-.67-1.1-.9-.9-.33-1.41-.33zm22.42 9.31h-4.57c-.17 0-.32-.06-.43-.18s-.17-.24-.17-.4V49.3c0-.16.06-.3.17-.41s.26-.17.43-.17h4.57c.16 0 .3.06.43.17s.16.25.16.4c0 .18-.06.33-.16.43s-.27.16-.43.16h-4v3.4h3.37a.58.58 0 0 1 .6.58c0 .16-.07.3-.2.4s-.24.18-.4.18h-3.36v3.58h4a.56.56 0 0 1 .58.6.6.6 0 0 1-.59.58zm30.69 0a2.96 2.96 0 0 1-2.93-2.94.58.58 0 0 1 .6-.6c.15 0 .29.06.4.18s.18.26.18.42c0 .24.05.47.13.68a1.8 1.8 0 0 0 1.62 1.08c.24 0 .48-.05.69-.15s.4-.21.56-.37.29-.35.37-.56.15-.44.15-.68c0-.3-.06-.53-.18-.72a1.78 1.78 0 0 0-.8-.7l-.4-.17a20.32 20.32 0 0 0-.85-.32c-.28-.1-.57-.23-.88-.37s-.56-.3-.8-.48a2.3 2.3 0 0 1-.79-1.85c0-.4.08-.79.24-1.14a3.06 3.06 0 0 1 1.55-1.57 2.86 2.86 0 0 1 3.23.64 3 3 0 0 1 .86 2.08.5.5 0 0 1-.17.4.6.6 0 0 1-.84 0 .54.54 0 0 1-.17-.41c0-.24-.05-.47-.15-.68a1.74 1.74 0 0 0-1.62-1.08 1.71 1.71 0 0 0-1.23.51 1.78 1.78 0 0 0-.52 1.25c0 .27.05.49.17.67s.27.32.48.46c.2.13.44.24.7.36l.42.16.44.16c.3.1.6.24.88.36s.57.32.8.52.44.48.58.78.24.7.24 1.14a2.96 2.96 0 0 1-2.96 2.94zm20.58-9.33h-2.15v8.72c0 .16-.06.3-.17.42s-.26.17-.41.17a.6.6 0 0 1-.6-.58v-8.72h-2.16a.58.58 0 0 1-.58-.6c0-.15.06-.28.18-.4s.25-.17.4-.17h5.5c.15 0 .29.06.41.17s.17.26.17.4c0 .18-.07.33-.17.43s-.26.16-.42.16zm17.4 9.31a5.12 5.12 0 0 1-3.7-1.53 5.3 5.3 0 0 1-1.54-3.72 5.31 5.31 0 0 1 3.2-4.82 5.12 5.12 0 0 1 2.04-.4 5.23 5.23 0 0 1 2.04 10.06 5.18 5.18 0 0 1-2.04.41zm0-9.3a4.18 4.18 0 0 0-3.76 2.47 3.97 3.97 0 0 0 0 3.16 4.11 4.11 0 0 0 3.76 2.5 3.97 3.97 0 0 0 2.88-1.2 4.17 4.17 0 0 0 1.19-2.87 3.97 3.97 0 0 0-1.2-2.88 4.1 4.1 0 0 0-2.87-1.19zm20.78 4.7h-.16l.17-.32 2.4 4.03c.05.1.09.2.09.31 0 .16-.07.3-.18.4a.58.58 0 0 1-.71.1.54.54 0 0 1-.22-.21l-2.57-4.32h-.57v4.03c0 .16-.07.3-.18.4s-.25.18-.41.18-.32-.06-.43-.17-.17-.26-.17-.41v-9.3c0-.16.06-.3.17-.4s.27-.18.43-.18h2.33a2.98 2.98 0 0 1 2.72 1.8 2.82 2.82 0 0 1 0 2.27 3 3 0 0 1-1.57 1.56 2.8 2.8 0 0 1-1.15.24zm0-4.7h-1.76v3.51h1.76a1.77 1.77 0 0 0 1.76-1.76 1.84 1.84 0 0 0-.51-1.24 1.8 1.8 0 0 0-1.26-.52zm15.55 9.3a.6.6 0 0 1-.6-.58v-9.3c0-.16.06-.3.18-.4a.6.6 0 0 1 .84 0c.11.1.17.24.17.4v9.32a.6.6 0 0 1-.59.58zm18.64 0h-4.57c-.17 0-.32-.06-.43-.17s-.17-.26-.17-.41v-9.3c0-.16.06-.3.17-.41s.26-.17.43-.17h4.56a.58.58 0 0 1 .61.58c0 .17-.06.32-.17.42s-.26.16-.44.16h-3.98v3.4h3.36a.58.58 0 0 1 .6.58c0 .16-.07.3-.18.4s-.26.18-.41.18h-3.36v3.58h3.97c.18 0 .32.05.44.17a.6.6 0 0 1 0 .83.56.56 0 0 1-.44.18zm15.35 0a2.96 2.96 0 0 1-2.93-2.92.58.58 0 0 1 .6-.61c.16 0 .3.05.4.17s.17.26.17.43c0 .23.05.46.15.68a1.8 1.8 0 0 0 1.61 1.07 1.82 1.82 0 0 0 1.63-1.08c.09-.22.14-.43.14-.67 0-.3-.05-.54-.17-.72a1.78 1.78 0 0 0-.81-.7l-.4-.17a20.32 20.32 0 0 0-.84-.32c-.29-.1-.59-.24-.88-.37s-.56-.3-.8-.49a2.24 2.24 0 0 1-.8-1.85c0-.4.08-.78.23-1.13a3.06 3.06 0 0 1 1.57-1.57 2.86 2.86 0 0 1 3.23.63 3 3 0 0 1 .85 2.08.5.5 0 0 1-.17.4.6.6 0 0 1-.84 0 .54.54 0 0 1-.17-.4 1.86 1.86 0 0 0-.52-1.26 1.8 1.8 0 0 0-1.25-.5 1.74 1.74 0 0 0-1.62 1.07 1.73 1.73 0 0 0-.14.68c0 .27.06.49.17.67s.27.32.47.47c.22.13.46.24.72.36l.43.16.44.15c.29.1.58.24.88.37s.57.31.8.51.42.48.57.78.23.7.23 1.15a2.96 2.96 0 0 1-2.95 2.93z" />
</svg>