<svg xmlns="http://www.w3.org/2000/svg" viewBox="0 0 1024 500">
    <path fill="#35444f"
        d="M970 267Zm-60 205-3 1v-35c3 4 7 7 11 7-2-3-5-5-6-9 5-1 10 3 16 3-1 1-2 2-1 3 1 2 3 2 5 2l1 1a20 20 0 0 0 5-2c-3 3-5 5-5 8 8-3 18-5 26-9l-1 23h-3c-21 3-34 4-45 7Zm-96-56h3-3Zm-145-10-1 1-1-1a3 3 0 0 0 2 0Zm33-113-1 1-6-1 3-2 1-1 3 3Zm-27-45-2 2-1-2h3Zm3 4-4 2-1-3 5 1Zm52 53 6-12 5-3 21-8 22-13 9-14 10 13 3 16 9 15 20 9 11 16-4-15-9-11-11-4-8-6 3-5-3-10 15 14 6-3 8 6 3 5-8-1c-3-1 5 10 16 13l4 1-9 3h17l5 3c-2 2-5 4-9 4l11 2-5 3c2 2 5 2 7 2-12 5-24 5-37 1 2 8 19 17 27 15l-9 2c3 2 9 1 12 1-3 3-8 6-13 7h6c-10 3-24 0-33-5 6 10 19 16 32 15l-8 3h18c-2 6-8 10-14 13a197 197 0 0 1-2-6l-4 6 2-2-1 3-3 5 2-1-1 2c-8-1-14-3-21-6v-3l1 1-1-2-3-9-3 11 1-2a32 32 0 0 1-2 9l-1 3-2-5a226 226 0 0 1-4 9l-1-8 2 1-2-5-3-11 2 2-4-13-3 10-2 3 2-1-3 9-2 3 3-1-4 9-2 3 3-2-1 8a26 26 0 0 1-1-2l-1 2-3-6-1 3-3-8-3 9-1 2-2-6 2 1-4-8-3 7-1 1h1l-1 3a31 31 0 0 1-1-1l-2-7h1l-1-2-3-6-4 6 2-2-1 3-4 5 3-1-2 5-1-1-3-8 2 1-2-2-2-7 2 1-2-2-3-8-4 10 2-1a30 30 0 0 1-2 8 37 37 0 0 1-2 4l2-1-1 6-3 5 2-1v3l-2 4-1-3h2l-2-3-1-3 2 1-3-3-1-2 2 1-3-4-2 4-1 2 1-1-1 5h-1l-2-4-1-2h2l-4-8-1 4a18 18 0 0 1-1-2l-1-2h2l-4-7-1 3a17 17 0 0 1-2 2 28 28 0 0 1-1-2l-3-8 2 1-1-2 4-1a8 8 0 0 1-5-1l-2-7-2 4-8-4 7-1c-4-1-11-4-12-8 2 1 7 3 7 0 4 0 13 0 16-3-4-1-9-2-12-5l4-3-10-1 4-2-9-3-5-5h2l-1-4c4 2 7 4 11 4l-2-2c3 2 10 0 12-3-4 0-7-2-10-3l1-1 27-15-26 5-7 1h-2l3-4h1l1-2c3 0 6-2 9 0l-6-4 6-9 6-4 4 13Zm192 38Zm30 0 3 1-5 2-1 1-1-1a42 42 0 0 0 4-3Zm-19 80-5-4h11c-1 3-4 4-6 4Zm-104-9Zm-14-19v1-1Zm0-2v-2l1-2a28 28 0 0 1-1 4Zm6-5-1-1 1-1v2Zm21 10a45 45 0 0 1-2-5l1 1 2 1-1 3Zm5-2a17 17 0 0 1 0 1l-1-1h1Zm20-16-2 4 1-1v1l-8 1-2-6h1l-1-2 13-2-2 5Zm2 3v-1a21 21 0 0 1-1-2h5l-4 3Zm72-16h5c-3 2-6 4-10 4l6 6c-3 3-7 4-11 4l3-1-15-3 12-4-5-1a152 152 0 0 0 5-1c3-1 7-2 9-4h1Zm9-6-3 2-4-1 6-1h1Zm-118 39 1 1-1-1Zm1-1-1-2 2-1-1 3Zm9 2v1-1Zm-7-12-1 2 2-1-1 2-3 4a46 46 0 0 1-1-4l3 1-1-2-3-7a40 40 0 0 0 5 5Zm-70 14v1-1Zm-1-5a47 47 0 0 1 0-3l2 1-2 2Zm0 0a19 19 0 0 0 3 0s-1 2-1 4l-2-4Zm13-1v-2l1 1a15 15 0 0 1-1 1Zm9 1a17 17 0 0 1 0-1 3 3 0 0 0 1 0v2l-1-1Zm-72 4a22 22 0 0 1-1-2l2-1-1 3Zm-2-7 2 1a45 45 0 0 1-1 3 24 24 0 0 1-1-4Zm-14 8h1l-1 1a32 32 0 0 1 0-1Zm1-1a5 5 0 0 1-1-1 32 32 0 0 1 0-1l2-1-1 3Zm-8 5a18 18 0 0 1-2-1l2-1v2Zm-1 2a22 22 0 0 1-1-2h2l-1 2Zm59 0h1-1Zm1-1-1-1a10 10 0 0 0 2-1s0 0-1 2Zm-11-8h1a7 7 0 0 1-1 1h2l-2 3a20 20 0 0 1 0-4Zm-13-14h2l-1 3-1-3Zm-1-2 2 1a35 35 0 0 1-1 1l-1-2Zm-15-10 6-1h2l-3 6 2-2-1 6a47 47 0 0 1-2 5h2l-1 6-1 2-4-9-2 6-2-4 2 1-1-2-3-7-4 9 2-1a23 23 0 0 1-3 7 30 30 0 0 1-1 4l-2-4-5 5 3-1-2 2-3 4a8 8 0 0 1 0-1 14 14 0 0 1-2-2v-28h2l13 1c3 0 9 2 12 0l-4-2Zm-14-78 4-1-1 2a50 50 0 0 1-3-1Zm-237 0c3-3 12-5 13-11a26 26 0 0 1-8 3l11-10-3 19-13-1Zm1 96v1l3-1-2 5v-1l-2-4h1Zm15-1-1 1-1-2 2 1Zm8 1v1a11 11 0 0 1-1-1 4 4 0 0 0 1 0Zm18 6-1-1 2-1-2 4v1a13 13 0 0 1-2-4s2 0 3 1Zm9-11Zm1 0Zm-1 1a11 11 0 0 1 0-1h1l-1 1Zm10 5v1-1Zm9 2-1 1a10 10 0 0 1-1-1h2Zm15 2v1a199 199 0 0 1-1-1h1Zm8-3v2a19 19 0 0 1-2-1 14 14 0 0 0 2-1Zm9-4-1 2h-1a23 23 0 0 1-1-2h3Zm41 1-1 1v-2l1 1Zm1-1-1 1v-1a3 3 0 0 0 1 0Zm-198 41Zm6-2a19 19 0 0 1-1 3v-2l1-1ZM94 462v-17l23 1h2a9 9 0 0 0 0 2l3-1 15 2h2v7l-28 7h-4a210 210 0 0 1-13-1Zm30-160 7 5 4 3 6 5a22 22 0 0 1 0 1h-5l4 3a16 16 0 0 1-3 3l-4 2c-1 2 1 3 3 3l-9 8 10-8 4 1-3 3 5 1c-1 3-8 5-11 7l3 2-5 1 9 4c0 3-7 4-10 4 2 1 6 1 8 3a10 10 0 0 1-2 1v-1a15 15 0 0 1-2 2l-3 1c-7 3-16 3-23 3 4-3 10-4 14-6h-5c4-1 9-4 12-7-5 4-14 4-21 4l3-1-9-1 8-2-13-5c5 0 12-1 17-3l-12-1c7 0 14-2 19-5-7 2-15-1-22-3l6-1-3-2h17c4 0 16-7 18-11-6 2-11 2-16 1l3-3-14 1 7-3-10 1 6-6 6-3 6-1Zm112 134a6 6 0 0 1 0-2h1l-1 2Zm12-9-1-1 1 1Zm1 3-1-2a17 17 0 0 0 1-1v3Zm16-16-1-1 2-1-1 2Zm15 13a18 18 0 0 1-1 2v-3l1 1Zm0-1-1-2 2-1a18 18 0 0 1-1 3Zm18 4v1-1Zm9 4h2l-1 2-1-2Zm0-2 2 1a23 23 0 0 1-2 1v-2Zm10 8Zm27-12-1-2h2l-1 2Zm45-2Zm-46 3h1-1Zm37 1 1 1a15 15 0 0 1-1 1v-2Zm-16-1h2l-1 2-1-2Zm-9-5 2-1-2 4-1-3h2-1Zm-21 9h1a13 13 0 0 1 0 1l-1-1Zm-18 2 1 1a315 315 0 0 1-1 1v-2Zm-19-8h2a28 28 0 0 1-1 2h-1v-2Zm-35-13 3 1-2 2-1-3Zm-27 19h1l-1 1a25 25 0 0 1 0-1Zm-112-55 3 4c-4 5-10 4-16 3l2 2-7-2c3 0 7-1 10-3-4-1-9 0-12-2l20-2Zm1-4h4l-1 1a22 22 0 0 1-3-1Zm12-14a28 28 0 0 1-7 2l2-2h5Zm-21 30a14 14 0 0 0 3 1l-5-1h2Zm104 36-2-3h2v3Zm-1 5Zm-1-2-1-4 3 1-2 3Zm-15-6h2l-1 1-1-1Zm-11 1 2 1a15 15 0 0 1-1 1l-1-2Zm-15-1 2 1a58 58 0 0 1-1 1l-1-2Zm-8-6a14 14 0 0 1 0 2c-3-2-6-3-7-5l9-1a237 237 0 0 1-3 5l1-1Zm-70 16 8 1a29 29 0 0 1-1 2l-5 1-2-4Zm-4 2a27 27 0 0 0 2 2h-2v-2Zm54 19v-4l8 2-8 2Zm19-151 12-9 7-11 6-5-9 19 11-9 14-30 5 10 2 7 3 2-3 10-9 10-6 6-6 8-15 25 16-21 15-10 12-19-1 13 10-18 16-17 5-3 7-8 11-5 7-17 6 15-6 9-8 9-8 4-6 11-7 19-15 19 18-18 9-18h8l10 5 6-15 4 16 3 4-7 10-12 12-12 21 12-1-4 8-8 15-11 8-18 25 20-21 12-10 11-8 14-20 7-11 6 9 2 12 10 8 6-1 11 5 2 2h-14c6 4 13 5 20 6a68 68 0 0 1-11 6l5-1-5 4 16 2h4v1l-6 5-2 4-1 7-3 2-11 11-9 1-10 7 25-7 13-12 15-7h8a30 30 0 0 1-17 10c9 1 21-2 28-6-4 3-9 7-15 9l11-2-1 1h3l-4 5-3 1h4l-4 3-23 2s14 4 44 4v14l-4-6-4 8 2-1a16 16 0 0 1-2 5 5 5 0 0 1-1-2 856 856 0 0 1-4-8l-3 8-2-3-3 6-2-2-2-1-2-5 2 1-2-2-3-5-4 7a26 26 0 0 1-1-1l-3-5 3 1-2-2-3-5-4 7 2-1a14 14 0 0 1-2 6 23 23 0 0 1-3 2 796 796 0 0 1-2-4l-5 7 2-1a13 13 0 0 1-1 5 5 5 0 0 1-1-2 688 688 0 0 1-4-7l-4 7-1-3-4 5-1-1-4 4a21 21 0 0 1-3-3h1l-3-3-2 2-1 1-4-4a21 21 0 0 1-1-2s1 1 2 1l-5-4-2 3a27 27 0 0 1-2-3 18 18 0 0 1-3-7s1 1 2 1l-4-8-4 6-2 2h2l-1 3-4-5-4 8a15 15 0 0 1-1-2l-1-6h2l-2-4-1-6 2 2-4-6-1-3 2 2-5-7-2 7-2 3 2-1-3 8a25 25 0 0 1-2 2 16 16 0 0 1-1-2 51 51 0 0 1-2-4l-4 8 2-1-1 2a17 17 0 0 1-2 2l-1-3-4 7 2-1-1 3-3 3a20 20 0 0 1 0-1l-3-5 2 1-2-2-2-4-4 4 2-1-1 2-3 3 2-1-1 3-2 3 2-1-1 4-2-2-1-4 3 1-3-4-2-5h3l-3-4a23 23 0 0 1-2-7s1 0 2 1l-5-10-3 8-2 2 2-1-3 6-2 2h3l-4 7a14 14 0 0 1-2 1 20 20 0 0 1 0-1l-1-4 2 1-3-5a26 26 0 0 1-2-2s2 1 3 1l-6-5-3 6-2 2 3-1-4 6a29 29 0 0 1-1 2 32 32 0 0 1-2-3h3l-2-1-4-6-4 7 1-1a16 16 0 0 1-1 5 5 5 0 0 1-1-1l-4-9-3 8-2-3-3 6-2-2v1l-2-2a6 6 0 0 1-1-1h1-1l-2-4 2 1-1-2a293 293 0 0 1-2-4l9-3-10-3c-5-1-12-4-14-8h4l-2-3h10c4 0 14-3 17-7-9 2-17-1-26-5 4 0 8-1 11-3-5 0-11-2-14-6h5l-2-1h5l-3-3c4 0 9-2 12-5-6 0-13-3-17-7h4c-1-1-3-2-3-4l12-3-11-2-3-4h5l-5-3 13-2c-7-1-13-2-16-8l8-2c-2 0-4-1-5-3 3 0 8-1 11-3-4 0-10-3-13-5l5-1-7-3 1-2 4-1a8 8 0 0 1-2-1l4-4 8-4Zm194 67-2-2a179 179 0 0 0 7-2l-5 4Zm-18-18-6-5 10 3a34 34 0 0 1-4 2Zm-46-123 11 13 15 12 16 19h-1a32 32 0 0 0 6 9l9 19a20 20 0 0 1-4 0c-6 1-12-1-17-2a284 284 0 0 1 10 7c-2 3-14 4-18 3l-9-3c5 5 11 11 18 14l13 3-13 2 14 2a16 16 0 0 1-2 1c6 5 18-1 24-4 2 3-6 10-9 11l15-3v1c-12 8-28 9-42 12l-13-9-11-21-11-13 2-6-1-7-7-17-1-9-1-13 4 7 3 6 15 14 15 9-14-12-8-8-4-8v-13l-13-22 9 6Zm203 172a5 5 0 0 0 1 0h-1Zm19-7h1-1Zm32 3-1-1h1a5 5 0 0 1 0 1Zm8-4h1-1Zm44 7Zm-220-7v1l-1-1h1Zm53-5v1l1-1v1l-3 3h-1l-2-2-3 3 2-1-1 1a9 9 0 0 1-1 1 25 25 0 0 0-2-2c-1-2-3-3-3-5 0-3-1-7-3-9 3 4 10 8 16 10Zm9-4-1 1a22 22 0 0 1-2 2l-2-2-1 1-3-3 6 1h3Zm-2 6v1a41 41 0 0 1 0-1Zm0-1a24 24 0 0 1-1-1l2-1-1 2Zm-59 9v1a13 13 0 0 1-1-1h1Zm51-5-1-1a14 14 0 0 0 1 0v1Zm-1 1-1-1h2a5 5 0 0 1-1 1Zm-53 0 3 1-1-1 2-1-2 4v1a13 13 0 0 1-2-4Zm163 6ZM444 269l17-11 2 18-13 12-16-1 5-2h-9c5-4 16-7 18-8h-8l4-8Zm551 123c6-1 18-3 22-8-12 2-22-2-33-5 5 0 10-2 14-4-6 0-13-3-17-7h6l-2-1h6l-5-3c5-1 12-3 15-6-7 0-15-4-21-8l6 1-5-5c5-1 11-1 16-3-4-1-10-1-14-3l-4-5 6 1a50 50 0 0 0-6-4l16-2c-8-1-16-2-20-9l11-2c-3-1-6-2-7-4 5 0 10-1 13-3-4 0-12-3-16-5l7-2c-4 0-8-2-9-4l7-3c-3 0-6-2-7-4l6-1c-8-3-10-18-10-26 0 4-2 7-3 11l-2 9c-1 4-4 4-7 7 3 2 6 1 4 4l-2 5h-6l6 4a19 19 0 0 1-4 3l-6 3c-2 4 9 2 10 3 0 2-2 3-3 3 1 2 4 2 6 2-1 4-10 5-14 7l4 3-7 1 12 4c0 2-2 3-4 4a8 8 0 0 0 1-4 28 28 0 0 1-16 7l-9-4 10-3h-8c6-2 11-5 15-9-6 5-17 5-25 5l4-1-11-2 9-3-15-6c6 1 15-1 20-3l-14-1c8-1 16-3 23-6-9 1-18-2-27-4l7-1-3-3c6 1 14 2 21 0 4-1 18-9 20-14-7 2-12 2-19 1a54 54 0 0 1 4-3h-16l7-4-11 2c5-4 8-7 11-13l-9 3 5-7c-8 2-16 3-23 0l9-5-6-2c10 1 17-6 26-9l-18-1 4-1-13-5a42 42 0 0 0 16-1l-7-3c7 2 17-4 21-9-9 2-19 1-27-2l7-3c-10 0-5-6-14-9 4-1 9-1 13-3l-8-2c3-2 9-5 9-9-6 0-10 1-14-1l4-2-5-1c1-1 6-6 5-7 0-3-4-1-6-3-1-3 2-7-3-7a22 22 0 0 0-5-12c-2 5-3 12-3 17-2-1-5-3-8-3 1 4 1 8 5 11l-5 2 7 5c-5 2-11 4-16 2 2 5 8 9 14 11l-6 1c5 3 2 5 7 8-2 2-7 3-10 3l4 4c-7 1-18 2-25-2 1 7 10 17 18 18l-7 1c3 1 8 2 12 1a27 27 0 0 1-12 8c4 2 8 6 13 6l-6 4h4c-5 3-14 1-20 1 2 3 7 7 12 8l-12 5c4 2 8 5 13 5-4 5-11 7-18 8l-4-4-8-9-8-6-9-6-15-15-21-13-7 8-14 15-19 18-15 4-3-4-10-8-5 2-6 8a373 373 0 0 1-4-2v-1l4-1-4-3 5 1-6-4c-3-1-8 0-10-3 3 0 5-1 7-3-4 1-10 1-10-3a31 31 0 0 1 7-2 17 17 0 0 1-3-1l6-5-6-1c3 0 4-1 5-3-5 1-8-1-12-3 1-3 2-3 5-3l-1-2h6c-4-2-11-6-11-10h2l-1-1 3-1c-3-4-6-5-7-10h3l-2-2 3-1c-4-3-4-5-5-9l-1-5-2 9c-1 3-2 3-5 5l4 2v2c-1 3-5 4-7 4l5 2-3 3 4 1c-1 2-5 3-7 3l4 2-6 5-2-4-15-5-8-7-17-19-19-23-25-25-17-7-22 33-12-5-13 19-10 14-15 16-7 4-6 15-7-10-12-13-8 13-12 13-8 14h-5a7 7 0 0 1 2-3l-15-1c6-5 15-5 19-11-4-1-10 0-13-3l4-2-10-4c6 0 13 0 20-2l15-7c-3 1-8 0-11-1l12-6c-4-2-9-1-13-2l-7-2 3-5c-6 1-11 2-17 0 4-3 9-4 13-8-4 0-13 2-16-2l7-3c-5 0-11 1-14-3 5-2 13 0 14-7-3-1-6-1-8-3 5-2 9-2 13-7-6 0-15 1-20-3l4-2-4-3c6-1 20-1 24-6a60 60 0 0 0-9-1c8 0 15-4 22-8-8 1-29 3-33-5l-4-11c5-3 10-5 14-10l-6 1c4-5 6-7 8-12l-19 4 1-6h-3c3-3 8-5 10-8-2 0-8 0-10-2-2-1-1-2 0-5h-4c-1-5 1-11-1-16-3 7-3 13-5 20l-8-2c0 5 1 10 6 13l-7 4c3 2 6 4 5 7-1 4-8 2-10 0 0 3 2 8 4 10l6 5c-2 0-4 0-6 2l3 2-2 2 2 2c-3 9-21 7-26 2 2 11 11 22 21 24l-10-2c4 3 10 4 15 5-2 2-7 7-11 6l7 6h-1l-9 1-12-2 7 4h-8l-8-2 7 7-6-1 15 8 7 3 7 7c-3 2-6 3-10 3l7 4-25-4 1 5-20-10c4 17 17 26 34 23l-7 3 5 1c-3 3-10 7-15 5 7 7 15 11 24 13l-8 2 2 2c-7 0-10-2-17-5 2 3 5 8 9 9h-7l-8-7-7-4-12-18-36-26-10-8-24 20-12 19-11 13-11-9-12-9-27 34-9 14-9 3-6 1-6 1-3 3c-2-6-2-13-2-18l-2 10-2 9c-1 3-3 4-5 6l-4-1-9-8-7-4-10 6a16 16 0 0 0 2-3c-6 2-14 3-19 0l7-4-5-1c9 0 15-5 22-8h-15l3-1-11-4 14-1-6-2c6 1 14-4 17-8-7 2-15 1-22-1l6-2c-9 0-5-5-12-7l11-3-7-2c3-2 8-4 8-7H91l3-2-4-1c0-1 5-4 5-6-1-2-4 0-6-2s2-5-3-6a17 17 0 0 0-3-10c-3 5-3 10-3 15-2-2-5-3-7-3 1 3 1 7 4 9l-4 1a28 28 0 0 0 6 4c-4 2-9 3-14 2 2 4 7 7 12 9l-4 1c4 2 2 4 5 6-2 2-5 2-8 2 1 2 2 3 4 3-7 2-16 2-22-1 0 6 8 14 15 14l-6 1c3 1 7 2 11 1-3 3-7 6-11 6 4 2 7 5 12 5l-6 3h4c-5 2-13 1-18 1 2 3 7 6 11 7l-10 4 10 4c-3 2-13 7-31 6-2 0 10 10 21 11l-8 2c8 0 16 2 24-3a27 27 0 0 1-14 9l9 2-4 2 7 2c-11 4-21 3-32 1 2 5 16 13 23 11l-8 2 10 1c-3 2-7 5-11 5h6c-9 3-21 1-28-4 5 9 16 13 26 13l-6 2h14c-1 5-8 9-14 10l14-2-2 4a57 57 0 0 0 5 0c-2 5-15 4-20 4-7-1-13-4-20-6 4 8 13 15 24 17H38l5 2c-5 2-12 2-18 1 9 6 24 8 35 8-3 4-10 6-15 7h14a34 34 0 0 0-4 4c3 1 5-1 8-2-4 5-12 10-18 11 5 0 13 0 18-3 0 4 5 4 7 1l1 7 3-2v2c-19 3-27 7-27 7l34-1v16c-6-1-11-2-15-1-16 1-59 9-59 9l48-1c16 0 33 3 33 3l-26 4s25 2 39-1c11-3 28-5 28-5l-17 10 58-19-13-1c23-6 49-4 64-4a1299 1299 0 0 0 168 19l-76-10c-32-5-62-14-62-14s48 8 71 6 58-3 88-9 81 3 81 3-43-10-69-10v-2l3 1-3-2-4-7 3 1-2-2-5-8-5 8-1-2a52 52 0 0 1-2 3 27 27 0 0 1-1-1v-5l1 1-1-1v-14l21-2c25-2 46 0 54 0l63 2c26 0 54 0 88-3l-27-3 16-1 38-1-44-2h-2a10 10 0 0 1 0-1s1 1 2 1l-2-2v-2l1 1-2-3v-3l1 1-1-2-1-3 1 1-2-3a15 15 0 0 1-1-1s1 0 2 0l-4-3-2 4-1 1h2l-3 3a15 15 0 0 1 0 1l-3-3-1-1h2l-3-6-1 3a14 14 0 0 1-2-2l-1-1h2l-3-6-2 3-3 3h3l-4 6a23 23 0 0 1-1-2h2l-2-1-2-4-4 4 2-1-1 1-3 3 1-1v3l-2 3 2-1-1 3h-1a15 15 0 0 1-2-6s1 1 2 1l-4-7-3 4-1-2h2l-2-2-3-5-4 7 2-1a14 14 0 0 1-3 6 22 22 0 0 1-2 2l-1-3-5 4 3-1-2 2-3 3a7 7 0 0 1-1 0 12 12 0 0 1-2-3l-2 3h1l-1 1-2 1-3-3-1 1-3-4-2 2-3-6-3 7a4 4 0 0 1-1 1 10 10 0 0 1-1-4s1 1 2 1l-4-6-3 5-2 1h2l-1 1a3 3 0 0 1-1-1l-1-1-1-3 2 1-2-3a14 14 0 0 1-1-5s1 1 1 1l-3-6-2 5-1 1h1l-1 4h-1l-2-4-3 4-2 1h2l-2 4-2 1h2l-3 4h-1l-4-6-1 2-3-5-2 3-3-7-3 7a4 4 0 0 1-1 1 13 13 0 0 1-1-4s1 1 1 1l-3-6-3 5-2 1h2l-1 2a24 24 0 0 1-1-1c-2-1-3-5-3-5h2l-2-1-3-5c0 2-4 4-4 4l2-1-1 2-4 4 3-1-2 4a22 22 0 0 1-1 2 20 20 0 0 1-2-2 15 15 0 0 1-2-6s1 1 2 1l-1-1 6-2-12-7c4 0 10-1 13-3l-3-2c3 1 7 0 10-2l-12-4-11-8 10-2 11 4 57 18 18 3-21-11-21-7-27-6-10-3 13-4c-8 0-16 0-24-2v-1l16-8c-5 0-11 2-16 0l5-4c-6 0-13 1-19-1l10-4h-15l-4-3h-6l4-1c-3-3-8-2-11-5l13-1a6 6 0 0 0-4-2c15 1 29-4 43-8-5-1-10 2-15 1 2-4 8-4 11-6a24 24 0 0 0 4-2l-1 5 4-8 2-1h-1l9-19-1-16 5-8 12 12-8-21 8-7 13-20 11-7 7-9-8 28-11 10-7 22-14 28 13-12 13-25 7-10 2 13-2 16 21 36-10-39-1-12-3-19 12-24 13-8 14-14 6-15 13 8 9 4 11 29 1-18 9 8 16 16 11 15 8 5 10 14 5 4c-4 3-11 6-15 4l6 4 5 2c0 4-9 6-12 7 5 0 9-1 14-3 1 3-5 5-7 7l2-1-6 5h5c-2 5-10 7-14 10 4 1 10-2 14-4 0 4-3 6-6 8h9l-6 3a100 100 0 0 1 8 0c-2 3-7 5-11 7l-9 6-11-13-16-8-15-16-14-17-2-16-12-18-7-25-2 23 7 9 8 21 1 16-2 8 8-7 16 19 5 11 22 8 12 6-5 5 8-3 3 2-2-3a17 17 0 0 1 5-1l-6 8c3 0 6-1 8-3l-2 3 11-7c-1 3-3 7-6 10 2-1 5-1 7-3l-1 1-26 25-15 7-42 6h45l9-3 17-10 8-1c-2 4-7 7-11 9h7l-8 5h4l-13 8 8 1 18 2h11v26a29 29 0 0 1 0-1l-2 3-3-8-3 8-1 2-1-5 1 1-3-7-3 5-2 2h2l-3 5-1 1h2l-3 5-2 1 3-1-1 4h-1c-13-1-3-4-25-1l-38 5h8l34-1a231 231 0 0 0 35 4h4c17 2 35 0 35 0s-5 3-15 4c-7 2-18 2-22 3l-32 6 51-5 35-5 40 3-23-5c-8-1-14-5-14-5s14 1 26-3c11-3 14-3 20-1 7 1 30 7 41 6l-24 4s29 0 38-4 8-3 28-3l-9 2c5 0 13-2 17 0a43 43 0 0 0-4 5c3 1 6-1 9-3-5 7-14 13-22 15 7-1 16-1 23-4-1 4 5 5 7 1l1 8 3-2v9l10-6v31h-16c-25-1-119 11-119 11h114c32 1 104 10 104 10s-51-14-67-17c0 0 28 4 52-3 23-8 49-2 49-2s-21-7-40-9l-1-22c6 2 20 1 23 2l13 1c-6-1-11-4-15-7 8-2 18-1 25-6-8-2-15-5-20-11l10-1c-6-1-15-4-19-8 8 0 19-2 25-5-4 0-9-3-13-4-5-2-14-5-17-9h6l-4-3h13Zm764 422 4-6 8-5 7-4 6-19-10 9-10 12-8 5-13 17-8 9 24-18Zm-264 145h3-3Zm177-13c-28 5-47-1-68 0l-81 3s37 6 54 4c17-1 2 1 2 1s-17 4-36 5h-45c29 3 45 8 79 2s70-7 118-8l107-4s-102-9-130-3Zm-204 53c-34 1-68 5-99 12-20 5-78 4-78 4 55 8 98-3 147-3s139 6 139 6-76-21-109-19ZM450 9c1 3 5 3 8 4s20 7 17 7l-6 3 2 1 2 2 3 1a80 80 0 0 0 4-1l3-2 1-2c1-1 1-1-1-1-4-2 8-4 11-5 3 0 4-2 5-3 2 0 5-3 4-3-4 3-15 3-20 4-2 1-3-2-5 0s-6-3-11-3c-6-1-11-2-14-4-5-3-9-5-4 0 0 0-1 1 1 2Zm250 66 2 2 5 1 25-2c1 3-7 5-9 6l1 1c0 1 2 3 4 3s2 2 4 1a107 107 0 0 0 4-1l4-3 1-2c2-1 0-1-1-3-3-6 9-4 15-1 2 1 6-1 7-1 2 0 7 0 6-2-7 2-19-6-25-6-2-1-4-2-5 0-8 0-25 6-32 5-8 0-14-1-6 2ZM197 180c3-1 8-2 6 0v2a5 5 0 0 0 2 1c2 1 4 1 5-1 0 0 1 0 0 0-1-1-4-1-3-2h9c1 1 3 0 3-1h-2l-13-3h-2c-2 0-7 4-10 3-1 1 5 1 5 1ZM332 34l3 3h-1a1 1 0 0 0 2 1v1h1l1-1h1l-1-1 2-1 4-1h-1l-6 1h-1l-6-4v1l2 1Zm517 68 5 3 9 6a50 50 0 0 0-4 1l1 1c0 2 3 3 5 2l3-2c1 0 1 0 0 0l-1-1s11 0 13-3l1-1c-3 2-10 0-12 1-1 0-2-2-3-1-2 1-4-2-7-3l-8-4c-3-2-5-4-2-1v2Zm-578 14c6 3 14 2 18 2l-1 2-1 1 2 2 3 1 4 1 3-1c2 0 1-2 2-3 0-1 2-1 1-2l-6-1c-3 0 12-8 15-10s6-3 7-6l1-2c3-5 0-2-5 2l-12 6c-5 1-8 6-11 5-2-2-3 1-4 1-5-1-16 1-20-1-1 1 2 2 4 3Zm220 52h-3c-2-2-10-4-11-7l1 4c2 4 8 5 10 6h-1v1l2 3c2 2 5 2 6 1l1-1a56 56 0 0 0-3-2c-1-1 9-2 11-2l6-1 1-2c3-2 0-1-3 0h-17ZM205 17c-1 1 9 3 9 4l-2 1 3 1h1a2 2 0 0 0 3-2 28 28 0 0 0-2-1c-1 0 9-4 8-6 1-2 0-1-2 1l-7 3c-1 0-2 0-1 1l-11-3h1Zm432 103 2 1 3 1-1 1h1a1 1 0 0 0 1 1l1-1a1 1 0 0 0 1 0v-1h-1l3-2 1-1c1-1 1-1 0 0l-4 2h-1l-6-1ZM517 79c0 3 3 3 5 4l10 8-4 1v1c0 2 3 3 5 3a2 2 0 0 0 1 1l2-1c1 2 4 1 5-1h1a55 55 0 0 0-3-3l11-3c3-1 5-1 6-3 2 0 1-1 1-1 4-2 1-2-3 0-4 1-13 1-16 3-1-1-3-2-3 0-3-3-13-7-16-9-2-2-3-4-4-3l1 2 1 1Zm94-31-1 1a2 2 0 0 0 2 1h1a2 2 0 0 0 2-1h1-2c0-1 8-2 8-4h-1l-7 2h-2c-1-2-6-4-8-5l1 1c-1 1 7 4 6 5Zm143 113h1c-4-3-9-8-13-3h-3c-3 1-3-3-5-2-3 3-5 7-5 11 1 1 2-4 2-4 2-3 3-2 5-2 0 2-4 3-1 3l4-2c4-3 8-1 12-1h3Zm-611-52h4c5 0 11-3 16 1l6 2-3-2c4-2 5-3 7 1 7 16 1-6-4-8-3-2-2 3-6 2h-4c-5-6-12 0-17 3-1 1 0 1 1 1Zm651-85c2-4 3-2 6-1-1 1-5 2-2 2h1c9-6 10-4 19-3h4l1-1c-5-2-12-8-16-3h-4c-3 1-3-3-6-2a25 25 0 0 0-6 13c1 1 2-4 3-5Z" />
</svg>