<svg xmlns="http://www.w3.org/2000/svg" viewBox="0 0 244 52">
    <path fill="#35444f"
        d="M-.7 37.17V0h9.17l10.29 15.12c1.51 2.25 3.48 5.35 5.28 8.33-.17-3.32-.28-6.92-.28-9.62V0h9v37.17h-9.23L12.07 20.41A88.72 88.72 0 0 1 8 13.72c.17 3.04.28 6.13.28 8.26v15.19H-.7zm37.23 0L50.4 0h7.54L73.3 37.17h-9.56l-2.53-6.24H47.7l-2.19 6.24h-9zm16.03-19.68-2.03 5.57H58l-2.26-5.69a74.37 74.37 0 0 1-1.68-4.83c-.63 2.08-1.19 4-1.52 4.95zm20.62-9.4V0h31.61v8.1H93.71v29.07h-9.45V8.1H73.18zm35.71 14.57V0h9.45v22.66c0 3.6 1.12 7.31 7.14 7.31s7.42-3.7 7.42-7.82V0h9.12v22.15c0 9.57-4.73 15.8-16.48 15.8-11.41 0-16.65-5.9-16.65-15.3zm40.32 14.51V0h14.28c10.3 0 13.95 4.44 13.95 10.4 0 5.57-3.15 8.72-6.58 10.35 1.47.79 2.53 2.25 3.49 4.9.78 2.24 1.18 4.38 5.23 4.21l-1.63 7.65c-8.9 1.12-10.97-4.62-12.48-8.72-1.58-4.27-2.2-4.72-5.35-4.72h-1.47v13.1h-9.44zm14.06-29.24h-4.6v8.2h4.6c3.43 0 4.72-2.13 4.72-4.32 0-2.76-1.57-3.88-4.72-3.88zm17.2 29.24L194.37 0h7.53l15.35 37.17h-9.56l-2.53-6.24h-13.5l-2.18 6.24h-9zm16.03-19.68-2.03 5.57h7.5l-2.26-5.69a70.56 70.56 0 0 1-1.69-4.83c-.62 2.08-1.18 4-1.52 4.95zm23.79 19.68V0h9.45v29.07h14.56v8.1h-24.01z" />
    <path fill="#f76c5e"
        d="M12.05 47.1a255.34 255.34 0 0 0-1.03 2.8 72.25 72.25 0 0 0-.58 1.56.52.52 0 0 1-.49.34.52.52 0 0 1-.49-.34l-2.53-6.9-2.54 6.9a.55.55 0 0 1-.19.25.48.48 0 0 1-.58 0 .52.52 0 0 1-.2-.25 75.93 75.93 0 0 0-.58-1.55A1760.82 1760.82 0 0 1 .5 43.47a2.96 2.96 0 0 1-.13-.41c0-.14.05-.26.16-.36a.51.51 0 0 1 .66-.06.6.6 0 0 1 .18.24l2.55 6.9 2.53-6.9a.51.51 0 0 1 .2-.24.51.51 0 0 1 .77.24l2.54 6.9 2.54-6.9a.51.51 0 0 1 .19-.24.51.51 0 0 1 .65.06c.1.1.16.21.16.36a41.38 41.38 0 0 1-.45 1.35 551.49 551.49 0 0 1-.99 2.7zm11.98 4.7a.52.52 0 0 1-.52-.51v-8.16c0-.14.05-.25.15-.35s.22-.15.37-.15c.14 0 .26.05.36.15s.16.22.16.35v8.16c0 .14-.05.26-.16.36s-.21.15-.36.15zm15.4 0h-3.1c-.14 0-.26-.06-.36-.15s-.15-.23-.15-.36v-8.16a.5.5 0 0 1 .51-.5.49.49 0 0 1 .52.5v7.65h2.59c.14 0 .26.05.37.15s.15.23.15.36a.53.53 0 0 1-.53.52zm14.14 0h-2.86c-.09 0-.17-.03-.26-.08s-.14-.12-.18-.21a.49.49 0 0 1-.02-.42v-7.96c0-.14.04-.25.14-.35s.23-.15.37-.15h2.8c.62 0 1.17.14 1.68.4s.93.6 1.3 1.03.62.9.82 1.45a4.91 4.91 0 0 1-.07 3.54 4.62 4.62 0 0 1-2.23 2.41c-.48.22-1 .34-1.48.34zm0-8.15h-2.3v7.12h2.3c.44 0 .84-.1 1.2-.31a3.57 3.57 0 0 0 1.6-2 3.96 3.96 0 0 0 0-2.59c-.14-.43-.35-.8-.6-1.13s-.6-.6-.98-.8-.79-.29-1.23-.29zm17.4 8.15c-.35 0-.68-.07-1-.21a2.67 2.67 0 0 1-1.36-1.37 2.47 2.47 0 0 1-.2-.99c0-.15.04-.28.15-.37s.23-.15.37-.15.26.04.36.15.16.22.16.37c0 .2.03.4.12.6a1.57 1.57 0 0 0 1.4.93 1.51 1.51 0 0 0 1.1-.45 1.57 1.57 0 0 0 .46-1.08 1.2 1.2 0 0 0-.58-1.07 1.73 1.73 0 0 0-.3-.17l-.33-.15a17.78 17.78 0 0 0-.74-.28c-.25-.1-.51-.2-.77-.32s-.49-.26-.7-.43-.37-.4-.5-.66-.2-.57-.2-.96c0-.35.07-.68.2-1a2.67 2.67 0 0 1 1.37-1.36 2.53 2.53 0 0 1 2.83.55 2.63 2.63 0 0 1 .75 1.82.5.5 0 0 1-.15.36.52.52 0 0 1-.74 0 .48.48 0 0 1-.14-.37 1.59 1.59 0 0 0-.46-1.08 1.57 1.57 0 0 0-1.1-.46 1.5 1.5 0 0 0-1.07.45 1.54 1.54 0 0 0-.45 1.1c0 .23.04.42.14.58s.23.28.41.4c.18.12.4.22.63.31l.37.14.39.14.77.33c.27.12.49.27.7.44s.37.42.5.69.2.6.2 1a2.59 2.59 0 0 1-2.58 2.57zm14.13 0a.52.52 0 0 1-.53-.51v-8.16c0-.14.05-.25.16-.35a.52.52 0 0 1 .73 0c.1.1.15.21.15.35v8.16a.51.51 0 0 1-.51.51zm15.16 0H97.4c-.1 0-.18-.03-.28-.08s-.14-.12-.18-.21a.49.49 0 0 1-.02-.42v-7.96c0-.14.04-.25.15-.35s.22-.15.37-.15h2.8a3.73 3.73 0 0 1 2.97 1.43c.35.42.63.9.82 1.45a4.91 4.91 0 0 1-.07 3.54 4.6 4.6 0 0 1-2.22 2.41c-.47.22-.99.34-1.49.34zm-.01-8.15h-2.3v7.12h2.3c.44 0 .85-.1 1.21-.31s.7-.5.96-.84.49-.72.63-1.16a3.96 3.96 0 0 0 .02-2.59 3.47 3.47 0 0 0-1.58-1.93 2.6 2.6 0 0 0-1.24-.29zm19.62 8.15h-4c-.15 0-.28-.06-.38-.16s-.15-.21-.15-.35v-8.15a.51.51 0 0 1 .52-.51h4c.15 0 .27.05.38.15s.15.22.15.35c0 .16-.06.28-.15.37s-.23.15-.37.15h-3.5v2.96h2.94a.5.5 0 0 1 .52.52c0 .14-.05.25-.16.35s-.22.16-.35.16h-2.94v3.12h3.49c.14 0 .26.05.37.16s.15.22.15.37a.52.52 0 0 1-.52.51zm26.85 0a2.59 2.59 0 0 1-2.56-2.57.51.51 0 0 1 .52-.52c.14 0 .25.04.35.15s.16.22.16.37c0 .2.04.4.12.6a1.57 1.57 0 0 0 1.41.93c.21 0 .42-.04.6-.12s.35-.2.5-.33.24-.3.32-.5.13-.37.13-.59c0-.25-.05-.46-.16-.63a1.55 1.55 0 0 0-.7-.6l-.35-.15a17.78 17.78 0 0 0-.74-.28l-.77-.32a3.11 3.11 0 0 1-.7-.43 2 2 0 0 1-.7-1.62c0-.35.08-.68.22-1a2.67 2.67 0 0 1 1.35-1.36 2.5 2.5 0 0 1 2.83.55 2.63 2.63 0 0 1 .75 1.82.5.5 0 0 1-.15.36.52.52 0 0 1-.74 0 .48.48 0 0 1-.14-.37c0-.2-.04-.41-.13-.6a1.53 1.53 0 0 0-1.42-.94 1.5 1.5 0 0 0-1.08.45 1.55 1.55 0 0 0-.45 1.1c0 .23.05.42.14.58s.24.28.42.4c.19.12.39.22.62.31l.37.14.39.14c.26.1.51.21.77.33s.5.27.7.44.37.42.5.69.21.6.21 1a2.59 2.59 0 0 1-2.59 2.57zm18.01-8.16h-1.88v7.63a.53.53 0 0 1-.51.52.52.52 0 0 1-.53-.51v-7.64h-1.89a.5.5 0 0 1-.5-.51c0-.14.05-.26.15-.35s.22-.16.35-.16h4.81c.14 0 .26.05.37.15s.14.22.14.36c0 .15-.05.28-.15.37s-.23.14-.36.14zm15.23 8.15a4.48 4.48 0 0 1-3.25-1.35 4.63 4.63 0 0 1-1.35-3.25 4.65 4.65 0 0 1 2.8-4.22 4.48 4.48 0 0 1 1.8-.35 4.58 4.58 0 0 1 1.78 8.8 4.53 4.53 0 0 1-1.78.37zm0-8.15a3.65 3.65 0 0 0-3.3 2.17 3.47 3.47 0 0 0 0 2.76 3.6 3.6 0 0 0 3.3 2.19 3.47 3.47 0 0 0 2.52-1.05 3.65 3.65 0 0 0 1.03-2.52 3.47 3.47 0 0 0-1.04-2.52 3.58 3.58 0 0 0-2.51-1.03zm18.17 4.11H198l.15-.28 2.1 3.53a.6.6 0 0 1 .08.28c0 .14-.06.25-.16.35a.51.51 0 0 1-.62.09.48.48 0 0 1-.19-.2l-2.25-3.77h-.5v3.53c0 .14-.05.25-.15.35a.51.51 0 0 1-.88-.35v-8.15a.5.5 0 0 1 .52-.5h2.04a2.61 2.61 0 0 1 2.38 1.57 2.47 2.47 0 0 1 0 2 2.63 2.63 0 0 1-1.37 1.36c-.32.14-.65.2-1.01.2zm0-4.11h-1.54v3.08h1.54a1.55 1.55 0 0 0 1.54-1.54c0-.21-.03-.4-.11-.6s-.2-.35-.33-.49a1.57 1.57 0 0 0-1.1-.45zm13.61 8.15a.52.52 0 0 1-.52-.51v-8.15c0-.14.05-.25.15-.35a.52.52 0 0 1 .74 0c.1.1.14.21.14.35v8.16a.52.52 0 0 1-.5.51zm16.31 0h-4c-.15 0-.27-.06-.37-.16s-.16-.22-.16-.36v-8.13c0-.14.06-.26.16-.36s.22-.15.38-.15h3.99a.51.51 0 0 1 .53.5c0 .16-.06.28-.16.37s-.22.15-.37.15h-3.49v2.96h2.94a.5.5 0 0 1 .52.52c0 .14-.06.25-.16.35s-.22.16-.35.16h-2.94v3.12h3.48a.5.5 0 0 1 .37.16.52.52 0 0 1 0 .73.49.49 0 0 1-.37.15zm13.44 0a2.59 2.59 0 0 1-2.57-2.57c0-.15.05-.28.15-.37s.22-.16.37-.16c.14 0 .26.05.35.16s.16.22.16.37c0 .2.04.4.12.6a1.57 1.57 0 0 0 1.42.93 1.59 1.59 0 0 0 1.42-.94c.07-.2.12-.38.12-.6 0-.25-.05-.46-.15-.62a1.55 1.55 0 0 0-.7-.61l-.35-.16a17.78 17.78 0 0 0-.74-.28c-.25-.09-.51-.2-.77-.32s-.5-.26-.7-.43a1.96 1.96 0 0 1-.7-1.61c0-.35.07-.69.2-1a2.67 2.67 0 0 1 1.37-1.37 2.5 2.5 0 0 1 2.83.55 2.63 2.63 0 0 1 .74 1.82c0 .14-.04.26-.14.36a.52.52 0 0 1-.74 0 .48.48 0 0 1-.15-.36 1.62 1.62 0 0 0-.45-1.1 1.57 1.57 0 0 0-1.1-.44 1.53 1.53 0 0 0-1.41.94 1.51 1.51 0 0 0-.12.6c0 .24.05.42.14.59s.24.28.42.4c.19.11.4.21.63.32l.37.14.38.13.77.32c.26.11.5.28.7.45s.37.42.5.69.2.6.2 1a2.59 2.59 0 0 1-2.57 2.56z" />
</svg>